# This file uses centimeters as units for non-parametric coordinates.

mtllib highpoly_cone.mtl
g default
v 12.087590 0.000000 -8.782134
v 4.617045 0.000000 -14.209792
v -4.617055 0.000000 -14.209792
v -12.087591 0.000000 -8.782134
v -14.941075 0.000000 0.000001
v -12.087591 0.000000 8.782133
v -4.617046 0.000000 14.209788
v 4.617054 0.000000 14.209788
v 12.087590 0.000000 8.782133
v 14.941072 0.000000 0.000000
v 14.862067 60.105450 -10.797925
v 5.676794 60.105450 -17.471428
v -5.676795 60.105450 -17.471422
v -14.862067 60.105450 -10.797924
v -18.370529 60.105450 -0.000001
v -14.862072 60.105450 10.797914
v -5.676796 60.105450 17.471420
v 5.676795 60.105450 17.471420
v 14.862072 60.105450 10.797914
v 18.370529 60.105450 -0.000002
v -0.000001 60.105450 -18.356737
v -0.000005 0.000000 -14.929832
v -10.789804 60.105450 -14.850906
v -8.775553 0.000000 -12.078487
v -17.458281 60.105450 -5.672539
v -14.199133 0.000000 -4.613571
v -17.458282 60.105450 5.672533
v -14.199133 0.000000 4.613572
v -10.789807 60.105450 14.850900
v -8.775548 0.000000 12.078485
v -0.000001 60.105450 18.356733
v 0.000004 0.000000 14.929828
v 10.789806 60.105450 14.850900
v 8.775551 0.000000 12.078485
v 17.458282 60.105450 5.672532
v 14.199131 0.000000 4.613571
v 17.458281 60.105450 -5.672540
v 14.199131 0.000000 -4.613572
v 10.789804 60.105450 -14.850909
v 8.775547 0.000000 -12.078487
vt 0.005240 0.935161
vt 0.005240 0.886861
vt 0.988229 0.886862
vt 0.988229 0.935161
vt 0.005240 0.838562
vt 0.005240 0.790264
vt 0.988229 0.790264
vt 0.988229 0.838563
vt 0.005240 0.741965
vt 0.005240 0.693666
vt 0.988229 0.693666
vt 0.988229 0.741965
vt 0.005240 0.645367
vt 0.005240 0.597067
vt 0.988229 0.597068
vt 0.988229 0.645367
vt 0.005240 0.548769
vt 0.005240 0.500470
vt 0.988229 0.500470
vt 0.988229 0.548769
vt 0.005240 0.452171
vt 0.005240 0.403872
vt 0.988229 0.403872
vt 0.988229 0.452171
vt 0.005240 0.355573
vt 0.005240 0.307274
vt 0.988229 0.307274
vt 0.988229 0.355573
vt 0.005240 0.258975
vt 0.005240 0.210676
vt 0.988229 0.210676
vt 0.988229 0.258975
vt 0.005240 0.162377
vt 0.005240 0.114078
vt 0.988229 0.114078
vt 0.988229 0.162377
vt 0.005240 0.065779
vt 0.005240 0.017480
vt 0.988229 0.017480
vt 0.988229 0.065779
vt 0.005240 0.983460
vt 0.988229 0.983460
vn 0.586832 -0.056922 -0.807705
vn 0.455382 -0.056245 -0.888518
vn 0.455382 -0.056245 -0.888518
vn 0.586832 -0.056922 -0.807705
vn 0.000000 -0.056922 -0.998379
vn -0.153846 -0.056245 -0.986493
vn -0.153846 -0.056245 -0.986493
vn 0.000000 -0.056922 -0.998379
vn -0.586832 -0.056922 -0.807705
vn -0.704310 -0.056244 -0.707661
vn -0.704310 -0.056244 -0.707661
vn -0.586832 -0.056922 -0.807705
vn -0.949515 -0.056922 -0.308516
vn -0.985751 -0.056244 -0.158527
vn -0.985751 -0.056244 -0.158527
vn -0.949515 -0.056922 -0.308516
vn -0.949515 -0.056922 0.308516
vn -0.890669 -0.056244 0.451159
vn -0.890669 -0.056244 0.451159
vn -0.949515 -0.056922 0.308516
vn -0.586832 -0.056922 0.807705
vn -0.455382 -0.056245 0.888518
vn -0.455382 -0.056245 0.888518
vn -0.586832 -0.056922 0.807705
vn 0.000000 -0.056922 0.998379
vn 0.153846 -0.056245 0.986493
vn 0.153846 -0.056245 0.986493
vn 0.000000 -0.056922 0.998379
vn 0.586832 -0.056922 0.807705
vn 0.704310 -0.056244 0.707661
vn 0.704310 -0.056244 0.707661
vn 0.586832 -0.056922 0.807705
vn 0.949515 -0.056922 0.308516
vn 0.985752 -0.056244 0.158526
vn 0.985752 -0.056244 0.158526
vn 0.949515 -0.056922 0.308516
vn 0.949515 -0.056922 -0.308516
vn 0.890669 -0.056244 -0.451159
vn 0.890669 -0.056244 -0.451159
vn 0.949515 -0.056922 -0.308516
vn 0.153846 -0.056245 -0.986493
vn 0.000000 -0.056922 -0.998379
vn 0.000000 -0.056922 -0.998379
vn 0.153846 -0.056245 -0.986493
vn -0.455382 -0.056244 -0.888518
vn -0.586832 -0.056922 -0.807705
vn -0.586832 -0.056922 -0.807705
vn -0.455382 -0.056244 -0.888518
vn -0.890669 -0.056244 -0.451159
vn -0.949515 -0.056922 -0.308516
vn -0.949515 -0.056922 -0.308516
vn -0.890669 -0.056244 -0.451159
vn -0.985752 -0.056244 0.158526
vn -0.949515 -0.056922 0.308516
vn -0.949515 -0.056922 0.308516
vn -0.985752 -0.056244 0.158526
vn -0.704310 -0.056244 0.707661
vn -0.586832 -0.056922 0.807705
vn -0.586832 -0.056922 0.807705
vn -0.704310 -0.056244 0.707661
vn -0.153846 -0.056245 0.986493
vn 0.000000 -0.056922 0.998379
vn 0.000000 -0.056922 0.998379
vn -0.153846 -0.056245 0.986493
vn 0.455382 -0.056244 0.888518
vn 0.586832 -0.056922 0.807705
vn 0.586832 -0.056922 0.807705
vn 0.455382 -0.056244 0.888518
vn 0.890669 -0.056244 0.451159
vn 0.949515 -0.056922 0.308516
vn 0.949515 -0.056922 0.308516
vn 0.890669 -0.056244 0.451159
vn 0.985752 -0.056244 -0.158526
vn 0.949515 -0.056922 -0.308516
vn 0.949515 -0.056922 -0.308516
vn 0.985752 -0.056244 -0.158526
vn 0.704310 -0.056244 -0.707661
vn 0.586832 -0.056922 -0.807705
vn 0.586832 -0.056922 -0.807705
vn 0.704310 -0.056244 -0.707661
s off
g highpoly_cone1:highpoly_cone
usemtl initialShadingGroup
f 40/1/1 2/2/2 12/3/3 39/4/4
f 22/5/5 3/6/6 13/7/7 21/8/8
f 24/9/9 4/10/10 14/11/11 23/12/12
f 26/13/13 5/14/14 15/15/15 25/16/16
f 28/17/17 6/18/18 16/19/19 27/20/20
f 30/21/21 7/22/22 17/23/23 29/24/24
f 32/25/25 8/26/26 18/27/27 31/28/28
f 34/29/29 9/30/30 19/31/31 33/32/32
f 36/33/33 10/34/34 20/35/35 35/36/36
f 38/37/37 1/38/38 11/39/39 37/40/40
f 2/2/41 22/5/42 21/8/43 12/3/44
f 3/6/45 24/9/46 23/12/47 13/7/48
f 4/10/49 26/13/50 25/16/51 14/11/52
f 5/14/53 28/17/54 27/20/55 15/15/56
f 6/18/57 30/21/58 29/24/59 16/19/60
f 7/22/61 32/25/62 31/28/63 17/23/64
f 8/26/65 34/29/66 33/32/67 18/27/68
f 9/30/69 36/33/70 35/36/71 19/31/72
f 10/34/73 38/37/74 37/40/75 20/35/76
f 1/41/77 40/1/78 39/4/79 11/42/80
